<svg xmlns="http://www.w3.org/2000/svg" x="0px" y="0px"
width="24" height="24"
viewBox="0 0 172 172"
style=" fill:#000000;"><g fill="none" fill-rule="nonzero" stroke="none" stroke-width="0" stroke-linecap="butt" stroke-linejoin="miter" stroke-miterlimit="10" stroke-dasharray="" stroke-dashoffset="0" font-family="none" font-weight="none" font-size="none" text-anchor="none" style="mix-blend-mode: normal"><path d="M0,172v-172h172v172z" fill="#fff"></path><path d="M86,172c-47.49649,0 -86,-38.50351 -86,-86v0c0,-47.49649 38.50351,-86 86,-86v0c47.49649,0 86,38.50351 86,86v0c0,47.49649 -38.50351,86 -86,86z" fill="#29b7dd"></path><path d="" fill="none"></path><g fill="#000000"><path d="M86,15.40833c-18.29507,0 -35.50725,7.07816 -48.46458,19.93229c-2.24747,2.22453 -2.27506,5.85982 -0.04479,8.10729c2.23027,2.24747 5.86556,2.26959 8.10729,0.03359c10.79587,-10.70413 25.15142,-16.60651 40.40208,-16.60651c15.25067,0 29.60622,5.89664 40.40208,16.60651c1.118,1.10653 2.57498,1.66849 4.03125,1.66849c1.47347,0 2.95804,-0.57262 4.07604,-1.70208c2.23027,-2.24747 2.20267,-5.87703 -0.04479,-8.10729c-12.95733,-12.85413 -30.16952,-19.93229 -48.46458,-19.93229zM86,37.0875c-12.44707,0 -24.17093,4.83374 -33.00026,13.59427c-2.24747,2.236 -2.26386,5.85983 -0.03359,8.10729c2.23027,2.2532 5.85983,2.26386 8.10729,0.03359c6.6736,-6.622 15.5239,-10.26849 24.92656,-10.26849c9.40267,0 18.25296,3.64649 24.92656,10.26849c1.118,1.10653 2.58045,1.65729 4.04245,1.65729c1.4792,0 2.94685,-0.56142 4.06485,-1.69089c2.23027,-2.24747 2.21387,-5.87702 -0.0336,-8.10729c-8.82933,-8.76627 -20.55319,-13.59427 -33.00026,-13.59427zM86,58.77786c-6.6736,0 -12.91406,2.57758 -17.56953,7.26745c-2.23027,2.24747 -2.21387,5.88249 0.03359,8.11849c2.24747,2.23027 5.87703,2.20814 8.10729,-0.03359c4.98227,-5.01667 13.87502,-5.01667 18.85729,0c1.118,1.12373 2.59138,1.69088 4.06485,1.69088c1.462,0 2.92445,-0.55622 4.04245,-1.66849c2.24747,-2.23027 2.26386,-5.85983 0.03359,-8.10729c-4.65547,-4.68987 -10.89593,-7.26745 -17.56953,-7.26745zM58.76667,92.80833c-2.3736,0 -4.3,1.9264 -4.3,4.3v18.63333c0,2.3736 1.9264,4.3 4.3,4.3h10.75c2.76347,0 5.01667,2.2532 5.01667,5.01667c0,2.76347 -2.2532,5.01667 -5.01667,5.01667h-10.75c-2.3736,0 -4.3,1.9264 -4.3,4.3c0,2.3736 1.9264,4.3 4.3,4.3h10.75c7.51067,0 13.61667,-6.106 13.61667,-13.61667c0,-7.51067 -6.106,-13.61667 -13.61667,-13.61667h-6.45v-10.03333h15.76667c2.3736,0 4.3,-1.9264 4.3,-4.3c0,-2.3736 -1.9264,-4.3 -4.3,-4.3zM98.9,92.80833c-5.53267,0 -10.03333,4.50067 -10.03333,10.03333v25.8c0,5.53267 4.50067,10.03333 10.03333,10.03333h14.33333c2.3736,0 4.3,-1.9264 4.3,-4.3v-17.2c0,-2.3736 -1.9264,-4.3 -4.3,-4.3h-8.6c-2.3736,0 -4.3,1.9264 -4.3,4.3c0,2.3736 1.9264,4.3 4.3,4.3h4.3v8.6h-10.03333c-0.7912,0 -1.43333,-0.64213 -1.43333,-1.43333v-25.8c0,-0.7912 0.64213,-1.43333 1.43333,-1.43333h14.33333c2.3736,0 4.3,-1.9264 4.3,-4.3c0,-2.3736 -1.9264,-4.3 -4.3,-4.3z" fill="#fff"></path></g></g></svg>