<svg xmlns="http://www.w3.org/2000/svg" x="0px" y="0px"
width="64" height="64"
viewBox="0 0 172 172"
style=" fill:#000000;"><g fill="none" fill-rule="nonzero" stroke="none" stroke-width="1" stroke-linecap="butt" stroke-linejoin="miter" stroke-miterlimit="10" stroke-dasharray="" stroke-dashoffset="0" font-family="none" font-weight="none" font-size="none" text-anchor="none" style="mix-blend-mode: normal"><path d="M0,172v-172h172v172z" fill="none"></path><path d="M86,172c-47.49649,0 -86,-38.50351 -86,-86v0c0,-47.49649 38.50351,-86 86,-86v0c47.49649,0 86,38.50351 86,86v0c0,47.49649 -38.50351,86 -86,86z" fill="#29b7dd"></path><g fill="#ffffff"><path d="M28.20461,23.65c-2.36441,0 -4.28114,1.91673 -4.28114,4.28114c0,2.36441 1.91673,4.28114 4.28114,4.28114c2.36441,0 4.28114,-1.91673 4.28114,-4.28114c0,-2.36441 -1.91673,-4.28114 -4.28114,-4.28114zM86,23.65c-2.36441,0 -4.28114,1.91673 -4.28114,4.28114c0,2.36441 1.91673,4.28114 4.28114,4.28114c2.36441,0 4.28114,-1.91673 4.28114,-4.28114c0,-2.36441 -1.91673,-4.28114 -4.28114,-4.28114zM143.79539,23.65c-2.36441,0 -4.28114,1.91673 -4.28114,4.28114c0,2.36441 1.91673,4.28114 4.28114,4.28114c2.36441,0 4.28114,-1.91673 4.28114,-4.28114c0,-2.36441 -1.91673,-4.28114 -4.28114,-4.28114zM38.90746,25.79057v4.28114h3.39481l5.79459,5.79459l3.0269,-3.0269l-6.42171,-6.42171c-0.40137,-0.40145 -0.94577,-0.62703 -1.51345,-0.62712zM128.8114,25.79057c-0.56768,0.00009 -1.11208,0.22567 -1.51345,0.62712l-6.42171,6.42171l3.0269,3.0269l5.79459,-5.79459h3.39481v-4.28114zM59.05892,34.35285l-0.88633,0.88633v2.50848l3.65402,3.65402c0.40145,0.40137 0.62703,0.94577 0.62712,1.51345v4.28114h-4.28114v-3.39481l-2.79696,-2.79695l-5.76532,1.44238v2.60882h2.14057v4.28114h-3.77526l-2.64645,1.32113v5.69843l3.70419,1.23334l2.71752,-2.71752v-1.25424h4.28114v2.14057c-0.00009,0.56768 -0.22567,1.11208 -0.62712,1.51345l-3.65402,3.65402v4.64905l0.88633,0.88633h3.39481c0.7157,0.00002 1.38403,0.35772 1.78102,0.95322l3.64566,5.46849h2.24927l3.0269,-3.0269v-32.47646l-3.0269,-3.0269zM110.4326,34.35285l-3.0269,3.0269v32.47646l3.0269,3.0269h2.24927l3.6373,-5.46849c0.39863,-0.59797 1.07073,-0.95601 1.78938,-0.95322h3.39481l0.88633,-0.88633v-4.64905l-3.65402,-3.65402c-0.40145,-0.40137 -0.62703,-0.94577 -0.62712,-1.51345v-2.14057h4.28114v1.25424l2.71752,2.71752l3.70419,-1.23334v-5.69843l-2.64645,-1.32113h-3.77526v-4.28114h2.14057v-2.60882l-5.76532,-1.44238l-2.79696,2.79695v3.39481h-4.28114v-4.28114c0.00009,-0.56768 0.22567,-1.11208 0.62712,-1.51345l3.65402,-3.65402v-2.50848l-0.88633,-0.88633zM83.85943,36.49342v12.1076l-2.9182,-2.9182c-0.40137,-0.40145 -0.94577,-0.62703 -1.51345,-0.62712h-6.2712v4.28114h5.38487l5.31798,5.31798v11.80658h4.28114v-20.51937l5.16747,-5.16747h5.53538v-4.28114h-6.42171c-0.56768,0.00009 -1.11208,0.22567 -1.51345,0.62712l-2.76769,2.76769v-3.39481zM28.20461,49.33684c-2.36441,0 -4.28114,1.91673 -4.28114,4.28114c0,2.36441 1.91673,4.28114 4.28114,4.28114c2.36441,0 4.28114,-1.91673 4.28114,-4.28114c0,-2.36441 -1.91673,-4.28114 -4.28114,-4.28114zM143.79539,49.33684c-2.36441,0 -4.28114,1.91673 -4.28114,4.28114c0,2.36441 1.91673,4.28114 4.28114,4.28114c2.36441,0 4.28114,-1.91673 4.28114,-4.28114c0,-2.36441 -1.91673,-4.28114 -4.28114,-4.28114zM98.84342,53.61798c-0.56768,0.00009 -1.11208,0.22567 -1.51345,0.62712l-4.28114,4.28114c-0.40145,0.40137 -0.62703,0.94577 -0.62712,1.51345v4.28114h4.28114v-3.39481l3.0269,-3.0269h3.39481v-4.28114zM58.17259,55.75855h4.28114v5.53538l1.51345,1.51345l-3.0269,3.0269l-2.14057,-2.14057c-0.40145,-0.40137 -0.62703,-0.94577 -0.62712,-1.51345zM111.68684,55.75855h4.28114v6.42171c-0.00009,0.56768 -0.22567,1.11208 -0.62712,1.51345l-2.14057,2.14057l-3.0269,-3.0269l1.51345,-1.51345zM71.01601,57.89912v4.28114h1.25424l3.0269,3.0269v1.25424h4.28114v-2.14057c-0.00009,-0.56768 -0.22567,-1.11208 -0.62712,-1.51345l-4.28114,-4.28114c-0.40137,-0.40145 -0.94577,-0.62703 -1.51345,-0.62712zM83.85943,70.76763c-2.21977,0.02569 -4.33104,0.07897 -6.30465,0.18813c-2.28613,0.11345 -4.50824,0.29182 -6.68092,0.50588c-0.10041,0.29763 -0.26611,0.56904 -0.48497,0.79435l-4.28114,4.28114c-0.40137,0.40145 -0.94577,0.62703 -1.51345,0.62712h-4.28114c-0.7157,-0.00002 -1.38403,-0.35772 -1.78102,-0.95322l-1.62215,-2.42905c-5.46274,1.48127 -7.15412,2.97027 -7.29968,3.42408v0.01672c0.66358,2.1684 13.71249,6.36318 36.38969,6.36318c22.6772,0 35.74752,-4.20318 36.38969,-6.45934c-0.02355,0 -0.6407,-1.29337 -5.50193,-2.83458l-1.28769,1.92735c-0.39725,0.58986 -1.0615,0.94392 -1.77266,0.94486h-4.28114c-0.56768,-0.00009 -1.11208,-0.22567 -1.51345,-0.62712l-4.28114,-4.28114c-0.15073,-0.16359 -0.27488,-0.34981 -0.36791,-0.55186c-4.76277,-0.54585 -9.95171,-0.85536 -15.2432,-0.92814v8.52883h-4.28114zM49.61031,82.4237v16.14625c0,20.09747 16.29222,36.38969 36.38969,36.38969c20.09747,0 36.38969,-16.29222 36.38969,-36.38969v-16.14625c-7.92011,4.17839 -25.0832,5.4434 -36.38969,5.4434c-11.30649,0 -28.46958,-1.26501 -36.38969,-5.4434zM45.32917,86.11953c-2.56597,0.89276 -4.28566,3.31188 -4.28566,6.02871c0,2.71684 1.71969,5.13596 4.28566,6.02871zM126.67083,86.11953v12.05743c2.55689,-0.90397 4.27027,-3.31675 4.28114,-6.02871c-0.01087,-2.71196 -1.72425,-5.12474 -4.28114,-6.02871zM66.92301,92.15243c3.47131,0.10174 6.2328,2.94473 6.23357,6.41753h-4.28114c0,-1.1822 -0.95837,-2.14057 -2.14057,-2.14057c-1.1822,0 -2.14057,0.95837 -2.14057,2.14057h-4.28114c0.00038,-1.73552 0.70322,-3.39699 1.9484,-4.60594c1.24518,-1.20895 2.92667,-1.86243 4.66145,-1.81159zM105.45327,92.15243c3.47131,0.10174 6.2328,2.94473 6.23357,6.41753h-4.28114c0,-1.1822 -0.95837,-2.14057 -2.14057,-2.14057c-1.1822,0 -2.14057,0.95837 -2.14057,2.14057h-4.28114c0.00038,-1.73552 0.70322,-3.39699 1.9484,-4.60594c1.24518,-1.20895 2.92667,-1.86243 4.66145,-1.81159zM79.57829,96.42939h4.28114v12.84342c0,1.1822 0.95837,2.14057 2.14057,2.14057c1.1822,0 2.14057,-0.95837 2.14057,-2.14057v-12.84342h4.28114v12.84342c0,3.54661 -2.8751,6.42171 -6.42171,6.42171c-3.54661,0 -6.42171,-2.8751 -6.42171,-6.42171zM71.01601,115.69452h4.28114c0,3.48057 4.90191,6.42171 10.70285,6.42171c5.80095,0 10.70285,-2.94114 10.70285,-6.42171h4.28114c0,5.9936 -6.58225,10.70285 -14.98399,10.70285c-8.40174,0 -14.98399,-4.70925 -14.98399,-10.70285zM66.73487,134.37434v11.28816h38.53026v-11.28816c-12.02418,6.4875 -26.50609,6.4875 -38.53026,0z"></path></g></g></svg>