<svg xmlns="http://www.w3.org/2000/svg" x="0px" y="0px"
width="64" height="64"
viewBox="0 0 172 172"
style=" fill:#000000;"><g fill="none" fill-rule="nonzero" stroke="none" stroke-width="1" stroke-linecap="butt" stroke-linejoin="miter" stroke-miterlimit="10" stroke-dasharray="" stroke-dashoffset="0" font-family="none" font-weight="none" font-size="none" text-anchor="none" style="mix-blend-mode: normal"><path d="M0,172v-172h172v172z" fill="none"></path><path d="M86,172c-47.49649,0 -86,-38.50351 -86,-86v0c0,-47.49649 38.50351,-86 86,-86v0c47.49649,0 86,38.50351 86,86v0c0,47.49649 -38.50351,86 -86,86z" fill="#29b7dd"></path><g fill="#ffffff"><path d="M40.43166,35.22145c-2.6013,-0.08006 -4.84207,1.81942 -5.18906,4.39871c-0.34699,2.57929 1.31212,5.00343 3.84209,5.61368c2.52997,0.61025 5.11179,-0.79093 5.97883,-3.24478h3.69623v12.74506c-4.22627,2.82089 -6.7662,7.56466 -6.77091,12.64587c-0.06119,1.99125 0.27834,3.97449 0.99845,5.83198c-4.85853,2.38662 -7.89001,7.37632 -7.76936,12.78804c-0.12065,5.41172 2.91083,10.40141 7.76936,12.78804c-0.7201,1.85749 -1.05964,3.84073 -0.99845,5.83198c0.00471,5.08121 2.54464,9.82498 6.77091,12.64587v12.74506h-3.69623c-0.82442,-2.33181 -3.20885,-3.73056 -5.64649,-3.31232c-2.43764,0.41823 -4.21945,2.53179 -4.21945,5.00505c0,2.47326 1.78181,4.58682 4.21945,5.00505c2.43764,0.41823 4.82207,-0.98051 5.64649,-3.31232h5.38896c0.93487,0 1.69273,-0.75786 1.69273,-1.69273v-12.73514c1.14341,0.41144 2.33228,0.6834 3.54084,0.81c0.7787,3.97369 4.25899,6.84184 8.30825,6.84695h3.38546c0.00453,4.47803 2.94136,8.42466 7.2294,9.71519c4.28804,1.29052 8.91529,-0.37964 11.39061,-4.11133c2.47532,3.7317 7.10257,5.40186 11.39061,4.11133c4.28804,-1.29052 7.22487,-5.23716 7.2294,-9.71519h3.38546c4.04926,-0.00511 7.52955,-2.87327 8.30825,-6.84695c1.20856,-0.1266 2.39744,-0.39856 3.54084,-0.81v12.73514c0,0.93487 0.75786,1.69273 1.69273,1.69273h5.38896c0.82442,2.33181 3.20885,3.73056 5.64649,3.31232c2.43764,-0.41823 4.21945,-2.53179 4.21945,-5.00505c0,-2.47326 -1.78181,-4.58682 -4.21945,-5.00505c-2.43764,-0.41823 -4.82207,0.98051 -5.64649,3.31232h-3.69623v-12.74506c4.22627,-2.82089 6.7662,-7.56466 6.77091,-12.64587c0.06156,-1.99127 -0.27798,-3.97459 -0.99845,-5.83198c4.85971,-2.38533 7.89171,-7.37586 7.76936,-12.78804c0.1232,-5.4124 -2.90905,-10.40336 -7.76936,-12.78804c0.72046,-1.85739 1.06001,-3.84071 0.99845,-5.83198c-0.00471,-5.08121 -2.54464,-9.82498 -6.77091,-12.64587v-12.74506h3.69623c0.82442,2.33181 3.20885,3.73056 5.64649,3.31232c2.43764,-0.41823 4.21945,-2.53179 4.21945,-5.00505c0,-2.47326 -1.78181,-4.58682 -4.21945,-5.00505c-2.43764,-0.41823 -4.82207,0.98051 -5.64649,3.31232h-5.38896c-0.93487,0 -1.69273,0.75786 -1.69273,1.69273v12.73514c-1.14341,-0.41144 -2.33228,-0.6834 -3.54084,-0.81c-0.7787,-3.97369 -4.25899,-6.84184 -8.30825,-6.84695h-3.38546c-0.00453,-4.47803 -2.94136,-8.42466 -7.2294,-9.71519c-4.28804,-1.29052 -8.91529,0.37964 -11.39061,4.11133c-2.47532,-3.7317 -7.10257,-5.40186 -11.39061,-4.11133c-4.28804,1.29052 -7.22487,5.23716 -7.2294,9.71519h-3.38546c-4.04926,0.00511 -7.52955,2.87327 -8.30825,6.84695c-1.20856,0.1266 -2.39744,0.39856 -3.54084,0.81v-12.73514c0,-0.93487 -0.75786,-1.69273 -1.69273,-1.69273h-5.38896c-0.69862,-1.97479 -2.53812,-3.31798 -4.63186,-3.38215zM40.22668,38.6036c0.46084,-0.01892 0.90945,0.15104 1.24208,0.47056c0.33263,0.31952 0.52047,0.76094 0.52008,1.22217c0,0.93487 -0.75786,1.69273 -1.69273,1.69273c-0.93487,0.01917 -1.70827,-0.72315 -1.72744,-1.65801c-0.01917,-0.93487 0.72315,-1.70827 1.65801,-1.72744zM131.70345,38.6036c0.93487,0 1.69273,0.75786 1.69273,1.69273c0,0.93487 -0.75786,1.69273 -1.69273,1.69273c-0.93487,0 -1.69273,-0.75786 -1.69273,-1.69273c0,-0.93487 0.75786,-1.69273 1.69273,-1.69273zM77.7345,38.60691c3.6605,0.10729 6.57233,3.10554 6.57255,6.76761v10.15637h-3.38546c-0.82761,0.0001 -1.53381,0.59862 -1.66959,1.41502l-1.11746,6.70148c-0.81062,0.28531 -1.60525,0.6142 -2.3804,0.98522l-5.52782,-3.9475c-0.67246,-0.48028 -1.59342,-0.40481 -2.17873,0.17853l-7.18418,7.18418c-0.58334,0.58531 -0.65881,1.50626 -0.17853,2.17873l3.96403,5.55427c-0.36707,0.76461 -0.69049,1.54941 -0.96869,2.35064l-6.73455,1.12077c-0.8164,0.13578 -1.41492,0.84197 -1.41502,1.66959v10.15637c0.0001,0.82761 0.59862,1.53381 1.41502,1.66959l6.73124,1.12077c0.27777,0.80921 0.59667,1.60371 0.95547,2.3804l-3.9475,5.52451c-0.48028,0.67246 -0.40481,1.59342 0.17853,2.17873l7.18418,7.18418c0.58531,0.58334 1.50626,0.65881 2.17873,0.17853l5.52782,-3.9475c0.77515,0.37102 1.56977,0.69991 2.3804,0.98522l1.11746,6.70148c0.13578,0.8164 0.84197,1.41492 1.66959,1.41502h3.38546v10.15637c0,3.73947 -3.03144,6.77091 -6.77091,6.77091c-3.73947,0 -6.77091,-3.03144 -6.77091,-6.77091v-0.16861c3.93824,-0.80991 6.76615,-4.27438 6.77091,-8.29503h-3.38546c0,2.8046 -2.27358,5.07819 -5.07819,5.07819h-5.07819c-2.23718,-0.00768 -4.20449,-1.48181 -4.84015,-3.6268c3.82029,-0.8951 6.52445,-4.29856 6.53287,-8.2223h-3.38546c0,2.8046 -2.27358,5.07819 -5.07819,5.07819c-6.54098,-0.00746 -11.84164,-5.30812 -11.8491,-11.8491c-0.13076,-2.05766 0.36984,-4.1062 1.43485,-5.87165c0.28726,-0.45614 0.34009,-1.02184 0.14226,-1.52328c-0.19784,-0.50145 -0.62268,-0.87868 -1.14401,-1.01581c-4.43313,-1.38326 -7.38669,-5.56894 -7.20401,-10.20927c-0.1842,-4.64154 2.76966,-8.82899 7.20401,-10.21257c0.52133,-0.13713 0.94617,-0.51436 1.14401,-1.01581c0.19784,-0.50145 0.14501,-1.06714 -0.14226,-1.52328c-1.06436,-1.76451 -1.56493,-3.81179 -1.43485,-5.86835c0.00746,-6.54098 5.30812,-11.84164 11.8491,-11.8491c2.8046,0 5.07819,2.27358 5.07819,5.07819h3.38546c-0.00843,-3.92374 -2.71258,-7.3272 -6.53287,-8.2223c0.63566,-2.14499 2.60296,-3.61913 4.84015,-3.6268h5.07819c2.8046,0 5.07819,2.27358 5.07819,5.07819h3.38546c-0.00476,-4.02065 -2.83268,-7.48512 -6.77091,-8.29503v-0.16861c0.00011,-1.83009 0.74103,-3.58219 2.05395,-4.85713c1.31292,-1.27493 3.08603,-1.9641 4.91533,-1.91048zM94.66179,38.60691c3.6605,0.10729 6.57233,3.10554 6.57255,6.76761v0.16861c-3.93823,0.80991 -6.76615,4.27438 -6.77091,8.29503h3.38546c0,-2.8046 2.27358,-5.07819 5.07819,-5.07819h5.07819c2.23718,0.00768 4.20449,1.48181 4.84015,3.6268c-3.82029,0.8951 -6.52445,4.29856 -6.53287,8.2223h3.38546c0,-2.8046 2.27358,-5.07819 5.07819,-5.07819c6.54098,0.00746 11.84164,5.30812 11.8491,11.8491c0.13043,2.05763 -0.37014,4.10608 -1.43485,5.87165c-0.28722,0.4566 -0.33962,1.02275 -0.14109,1.52431c0.19853,0.50156 0.62423,0.87847 1.14615,1.01478c4.43364,1.38197 7.38678,5.56897 7.20071,10.20927c0.1876,4.64151 -2.76584,8.83029 -7.20071,10.21257v-0.00331c-0.52192,0.13632 -0.94761,0.51322 -1.14615,1.01478c-0.19853,0.50156 -0.14613,1.06771 0.14109,1.52431c1.06552,1.76524 1.56616,3.81394 1.43485,5.87165c-0.00746,6.54098 -5.30812,11.84164 -11.8491,11.8491c-2.8046,0 -5.07819,-2.27358 -5.07819,-5.07819h-3.38546c0.00843,3.92374 2.71258,7.3272 6.53287,8.2223c-0.63566,2.14499 -2.60296,3.61913 -4.84015,3.6268h-5.07819c-2.8046,0 -5.07819,-2.27358 -5.07819,-5.07819h-3.38546c0.00476,4.02065 2.83268,7.48512 6.77091,8.29503v0.16861c0,3.73947 -3.03144,6.77091 -6.77091,6.77091c-3.73947,0 -6.77091,-3.03144 -6.77091,-6.77091v-10.15637h3.38546c0.82761,-0.0001 1.53381,-0.59862 1.66959,-1.41502l1.11746,-6.70148c0.81062,-0.28531 1.60525,-0.6142 2.3804,-0.98522l5.52782,3.9475c0.67246,0.48028 1.59342,0.40481 2.17873,-0.17853l7.18418,-7.18418c0.58334,-0.58531 0.65881,-1.50626 0.17853,-2.17873l-3.9475,-5.52782c0.37102,-0.77515 0.69991,-1.56977 0.98522,-2.3804l6.70148,-1.11746c0.8164,-0.13578 1.41492,-0.84197 1.41502,-1.66959v-10.15637c-0.0001,-0.82761 -0.59862,-1.53381 -1.41502,-1.66959l-6.70148,-1.11746c-0.28531,-0.81062 -0.6142,-1.60525 -0.98522,-2.3804l3.9475,-5.52782c0.48028,-0.67246 0.40481,-1.59342 -0.17853,-2.17873l-7.18418,-7.18418c-0.58531,-0.58334 -1.50626,-0.65881 -2.17873,-0.17853l-5.52782,3.9475c-0.77515,-0.37102 -1.56977,-0.69991 -2.3804,-0.98522l-1.11746,-6.70148c-0.13578,-0.8164 -0.84197,-1.41492 -1.66959,-1.41502h-3.38546v-10.15637c0.00011,-1.83009 0.74103,-3.58219 2.05395,-4.85713c1.31292,-1.27493 3.08603,-1.9641 4.91533,-1.91048zM57.22339,58.91634c-4.67434,0 -8.46364,3.7893 -8.46364,8.46364c0,4.67434 3.7893,8.46364 8.46364,8.46364v-3.38546c-2.8046,0 -5.07819,-2.27358 -5.07819,-5.07819c0,-2.8046 2.27358,-5.07819 5.07819,-5.07819zM82.35644,58.91634h7.28667l1.05134,6.30145c0.10643,0.63645 0.56546,1.15703 1.18359,1.34228c1.29002,0.38729 2.53819,0.90229 3.72599,1.53734c0.56769,0.30337 1.25831,0.25852 1.78199,-0.11571l5.19721,-3.70946l5.15423,5.15092l-3.71276,5.19721c-0.37771,0.52314 -0.42515,1.21552 -0.12233,1.7853c0.63485,1.18674 1.14985,2.43379 1.53734,3.72268c0.18419,0.61941 0.70498,1.07991 1.34228,1.18689l6.30145,1.04804v7.28997l-6.30145,1.04804c-0.6373,0.10698 -1.15809,0.56748 -1.34228,1.18689c-0.3875,1.28889 -0.90249,2.53594 -1.53734,3.72268c-0.30475,0.56854 -0.25988,1.26086 0.11571,1.7853l3.70946,5.1972l-5.15092,5.15092l-5.19721,-3.70946c-0.52509,-0.37453 -1.21738,-0.41812 -1.7853,-0.11241c-1.18686,0.63372 -2.43392,1.1476 -3.72268,1.53404c-0.61941,0.18419 -1.07991,0.70498 -1.18689,1.34228l-1.04142,6.28492h-7.28667l-1.05134,-6.30145c-0.10643,-0.63645 -0.56546,-1.15703 -1.18359,-1.34228c-1.29002,-0.38729 -2.53819,-0.90229 -3.72599,-1.53734c-0.56769,-0.30337 -1.25831,-0.25852 -1.78199,0.11571l-5.19721,3.70946l-5.15423,-5.15092l3.71276,-5.19721c0.37453,-0.52509 0.41812,-1.21738 0.11241,-1.7853c-0.63415,-1.21677 -1.15753,-2.48814 -1.56379,-3.79872c-0.20638,-0.57854 -0.70996,-0.99988 -1.31583,-1.10093l-6.29153,-1.05134v-7.28667l6.30145,-1.05134c0.60462,-0.10216 1.10672,-0.52331 1.31253,-1.10093c0.43603,-1.33017 0.97205,-2.62545 1.60346,-3.87476c0.26326,-0.55513 0.20505,-1.20933 -0.15208,-1.70926l-3.70946,-5.19721l5.15092,-5.15092l5.19721,3.70946c0.52444,0.37559 1.21676,0.42046 1.7853,0.11571c1.18674,-0.63485 2.43379,-1.14985 3.72268,-1.53734c0.61941,-0.18419 1.07991,-0.70498 1.18689,-1.34228zM114.77616,58.91634v3.38546c2.8046,0 5.07819,2.27358 5.07819,5.07819c0,2.8046 -2.27358,5.07819 -5.07819,5.07819v3.38546c4.67434,0 8.46364,-3.7893 8.46364,-8.46364c0,-4.67434 -3.7893,-8.46364 -8.46364,-8.46364zM84.30705,62.3018v3.38546h3.38546v-3.38546zM70.44122,68.04782l-2.39362,2.39362l2.39362,2.39362l2.39362,-2.39362zM101.56164,68.04782l-2.39362,2.39362l2.39362,2.39362l2.39362,-2.39362zM85.95019,69.07602c-0.64477,0.0185 -1.22298,0.40184 -1.49106,0.98853l-8.46364,18.62001c-0.23833,0.52392 -0.19409,1.13305 0.11743,1.61705c0.31152,0.48399 0.84764,0.77652 1.42322,0.77658h6.77091v10.15637c-0.00115,0.79692 0.55371,1.48671 1.33236,1.65636c0.11852,0.02466 0.2393,0.03685 0.36037,0.03637c0.66356,-0.00006 1.26589,-0.38783 1.54065,-0.99183l8.46364,-18.62001c0.23833,-0.52392 0.19409,-1.13305 -0.11743,-1.61705c-0.31152,-0.48399 -0.84764,-0.77652 -1.42322,-0.77658h-6.77091v-10.15637c-0.0007,-0.45709 -0.18622,-0.89447 -0.51438,-1.21267c-0.32816,-0.31819 -0.77105,-0.49015 -1.22794,-0.47676zM84.30705,78.58109v4.03345c0,0.93487 0.75786,1.69273 1.69273,1.69273h5.83529l-4.14256,9.11164v-4.03345c0,-0.93487 -0.75786,-1.69273 -1.69273,-1.69273h-5.83529zM62.30158,84.30727v3.38546h3.38546v-3.38546zM106.31252,84.30727v3.38546h3.38546v-3.38546zM57.22339,96.15637c-4.67202,0.0056 -8.45805,3.79162 -8.46364,8.46364c0.0056,4.67202 3.79162,8.45805 8.46364,8.46364v-3.38546c-2.8046,0 -5.07819,-2.27358 -5.07819,-5.07819c0,-2.8046 2.27358,-5.07819 5.07819,-5.07819zM114.77616,96.15637v3.38546c2.8046,0 5.07819,2.27358 5.07819,5.07819c0,2.8046 -2.27358,5.07819 -5.07819,5.07819v3.38546c4.67434,0 8.46364,-3.7893 8.46364,-8.46364c0,-4.67434 -3.7893,-8.46364 -8.46364,-8.46364zM70.44122,99.16493l-2.39693,2.39362l2.39693,2.39362l2.39362,-2.39362zM101.55833,99.16493l-2.39362,2.39362l2.39362,2.39362l2.39362,-2.39362zM84.30705,106.31274v3.38546h3.38546v-3.38546zM40.22668,130.01094c0.46084,-0.01892 0.90945,0.15104 1.24208,0.47056c0.33263,0.31952 0.52047,0.76094 0.52008,1.22217c0,0.93487 -0.75786,1.69273 -1.69273,1.69273c-0.93487,0.01917 -1.70827,-0.72315 -1.72744,-1.65801c-0.01917,-0.93487 0.72315,-1.70827 1.65801,-1.72744zM131.70345,130.01094c0.93487,0 1.69273,0.75786 1.69273,1.69273c0,0.93487 -0.75786,1.69273 -1.69273,1.69273c-0.93487,0 -1.69273,-0.75786 -1.69273,-1.69273c0,-0.93487 0.75786,-1.69273 1.69273,-1.69273z"></path></g></g></svg>