<svg class="svg-icon" style="width: 1em; height: 1em;vertical-align: middle;fill: currentColor;overflow: hidden;" viewBox="0 0 1024 1024" version="1.1" xmlns="http://www.w3.org/2000/svg"><path d="M901.12 235.52H706.56v-20.48c0-39.936-31.744-71.68-71.68-71.68H389.12c-39.936 0-71.68 31.744-71.68 71.68v20.48H122.88c-39.936 0-71.68 31.744-71.68 71.68v512c0 39.936 31.744 71.68 71.68 71.68h778.24c39.936 0 71.68-31.744 71.68-71.68V307.2c0-39.936-31.744-71.68-71.68-71.68z m-542.72-20.48c0-17.408 13.312-30.72 30.72-30.72h245.76c17.408 0 30.72 13.312 30.72 30.72v20.48H358.4v-20.48z m-235.52 61.44h778.24c17.408 0 30.72 13.312 30.72 30.72v160.768C793.6 531.456 652.288 563.2 512 563.2s-281.6-31.744-419.84-95.232V307.2c0-17.408 13.312-30.72 30.72-30.72z m419.84 327.68c0 17.408-13.312 30.72-30.72 30.72s-30.72-13.312-30.72-30.72h61.44z m358.4 245.76H122.88c-17.408 0-30.72-13.312-30.72-30.72V513.024c114.688 50.176 231.424 79.872 348.16 89.088v2.048c0 39.936 31.744 71.68 71.68 71.68s71.68-31.744 71.68-71.68v-3.072c116.736-8.192 233.472-38.912 348.16-89.088v307.2c0 17.408-13.312 30.72-30.72 30.72z" fill = '#fff' /></svg>