<?xml version="1.0" encoding="utf-8"?>
<!-- Svg Vector Icons : http://www.onlinewebfonts.com/icon -->
<!DOCTYPE svg PUBLIC "-//W3C//DTD SVG 1.1//EN" "http://www.w3.org/Graphics/SVG/1.1/DTD/svg11.dtd">
<svg version="1.1" xmlns="http://www.w3.org/2000/svg" xmlns:xlink="http://www.w3.org/1999/xlink" x="0px" y="0px" viewBox="0 0 1000 1000" enable-background="new 0 0 1000 1000" xml:space="preserve">
<metadata> Svg Vector Icons : http://www.onlinewebfonts.com/icon </metadata>
<g><g transform="translate(0.000000,511.000000) scale(0.100000,-0.100000)"><path d="M190,4529.5C96.2,4474,100,4652,100,977.1c0-3296,1.9-3426.2,36.4-3500.8c23-47.8,63.2-95.7,109.1-124.4l74.6-46l1661.4-5.7c1295.8-3.8,1659.5-9.6,1659.5-28.7c0-11.5-36.4-283.3-80.4-602.9l-82.3-578h-367.5h-369.4v-210.5v-210.5H5000h2258.6v210.5v210.5h-369.4h-367.5l-82.3,578c-44,319.6-80.4,591.4-80.4,602.9c0,19.1,363.7,24.9,1661.4,28.7l1659.5,5.7l70.8,44c40.2,24.9,86.1,76.6,109.1,126.3c40.2,80.4,40.2,80.4,40.2,3502.7c0,3690.3,5.7,3498.9-93.8,3552.5C9754.5,4558.2,237.8,4556.3,190,4529.5z M9689.4,1497.7v-2842.4H5000H310.6v2842.4V4340H5000h4689.4V1497.7z M9689.4-1987.8c0-246.9-7.7-426.8-19.1-449.8c-21-36.4-91.9-36.4-4670.3-36.4c-4578.4,0-4649.2,0-4670.3,36.4c-11.5,23-19.1,202.9-19.1,449.8v413.4H5000h4689.4V-1987.8z M6138.8-2745.8c9.6-47.9,162.7-1121.6,162.7-1148.4c0-7.7-585.7-15.3-1301.6-15.3c-715.8,0-1301.6,7.7-1301.6,15.3c0,26.8,153.1,1100.6,162.7,1148.4l9.6,42.1H5000h1129.3L6138.8-2745.8z" fill = "#fff"/><path d="M5357.9,2718.8c-13.4-23-932.1-2413.6-932.1-2427c0-5.7,49.8-9.6,111-9.6h109.1L5093.8,1446c246.9,639.3,459.4,1190.5,474.7,1225l24.9,61.3h-112.9C5417.2,2732.2,5361.7,2726.5,5357.9,2718.8z" fill = "#fff"/><path d="M3411.3,1811.6l-775.2-398.1V1312v-99.5l765.6-398.1c421.1-216.3,771.4-396.2,780.9-396.2c7.7-1.9,13.4,49.8,13.4,112.9v114.8l-664.2,333l-666.1,331.1l656.5,329.2c361.8,179.9,660.3,340.7,666.1,354.1c5.7,13.4,7.7,68.9,3.8,120.6l-5.7,95.7L3411.3,1811.6z" fill = "#fff"/><path d="M5807.7,2098.7l5.7-118.7l669.9-335l669.9-335L6479.5,979l-675.7-331.1V531.1c0-65.1,7.7-114.8,17.2-111c9.6,3.8,361.7,181.8,784.8,398.1l767.5,392.4v99.5v99.5l-472.8,243.1c-262.2,132.1-614.4,315.8-786.7,403.9l-312,162.7L5807.7,2098.7z" fill = "#fff"/></g></g>
</svg>