<svg class="svg-icon"  viewBox="0 0 1024 1024" version="1.1" xmlns="http://www.w3.org/2000/svg"><path d="M723.683 474.574h-127.04a82.168 82.168 0 0 1-82.075-82.074V265.46a82.168 82.168 0 0 1 82.076-82.074h127.039a82.167 82.167 0 0 1 82.074 82.074V392.5a82.167 82.167 0 0 1-82.074 82.074z m-127.04-253.188a44.125 44.125 0 0 0-44.075 44.074V392.5a44.125 44.125 0 0 0 44.076 44.074h127.039a44.124 44.124 0 0 0 44.074-44.074V265.46a44.124 44.124 0 0 0-44.074-44.074zM723.683 784.197h-127.04a82.168 82.168 0 0 1-82.075-82.075V575.083a82.167 82.167 0 0 1 82.076-82.074h127.039a82.167 82.167 0 0 1 82.074 82.074v127.04a82.167 82.167 0 0 1-82.074 82.074zM596.643 531.01a44.125 44.125 0 0 0-44.075 44.074v127.04a44.126 44.126 0 0 0 44.076 44.074h127.039a44.125 44.125 0 0 0 44.074-44.075V575.083a44.124 44.124 0 0 0-44.074-44.074zM414.355 790.862H287.316a82.167 82.167 0 0 1-82.074-82.074V581.75a82.167 82.167 0 0 1 82.074-82.075h127.04a82.167 82.167 0 0 1 82.074 82.075v127.04a82.167 82.167 0 0 1-82.075 82.073zM287.316 537.674a44.125 44.125 0 0 0-44.074 44.075v127.04a44.124 44.124 0 0 0 44.074 44.073h127.04a44.124 44.124 0 0 0 44.074-44.074V581.75a44.125 44.125 0 0 0-44.075-44.075z" fill = '#fff'/></svg>